<?xml version="1.0" standalone="no"?>
<!DOCTYPE svg PUBLIC "-//W3C//DTD SVG 20010904//EN"
 "http://www.w3.org/TR/2001/REC-SVG-20010904/DTD/svg10.dtd">
<svg version="1.0" xmlns="http://www.w3.org/2000/svg"
 width="200.000000pt" height="200.000000pt" viewBox="0 0 200.000000 200.000000"
 preserveAspectRatio="xMidYMid meet">
<metadata>
Created by potrace 1.11, written by Peter Selinger 2001-2013
</metadata>
<g transform="translate(0.000000,200.000000) scale(0.100000,-0.100000)"
fill="#000000" stroke="none">
<path d="M1100 1512 c-56 -28 -73 -69 -75 -181 -2 -126 5 -201 17 -201 13 0
157 111 195 151 45 48 62 85 57 127 -6 46 -26 78 -67 102 -40 25 -81 25 -127
2z"/>
<path d="M797 1423 c-27 -7 -49 -57 -38 -86 10 -27 99 -107 119 -107 12 0 17
37 13 105 -2 53 -10 71 -36 83 -27 12 -29 13 -58 5z"/>
<path d="M508 1282 c-71 -36 -102 -139 -58 -195 17 -21 18 -30 9 -54 -12 -33
-4 -86 15 -102 22 -18 58 -22 89 -10 21 9 31 23 39 55 l12 44 48 0 c26 0 48
-4 48 -8 0 -5 -12 -8 -27 -7 -37 3 -53 -11 -53 -46 0 -40 41 -60 69 -35 16 15
19 15 24 1 8 -19 26 -19 52 1 18 13 18 17 5 27 -9 7 -15 18 -14 25 1 6 2 21 3
32 2 34 31 11 31 -25 0 -18 9 -43 19 -56 19 -23 21 -24 50 -7 28 16 31 16 40
0 8 -13 13 -14 35 -4 25 11 37 42 16 42 -6 0 -10 31 -8 78 2 88 -3 102 -37
102 -31 0 -62 -29 -44 -41 7 -4 17 -5 21 -3 4 3 8 -2 8 -11 0 -11 -6 -14 -24
-9 -13 3 -33 1 -44 -5 -18 -10 -25 -4 -65 52 -111 154 -182 197 -259 159z m40
-289 c4 -39 -25 -54 -34 -18 -3 14 -3 32 0 41 9 25 31 11 34 -23z m348 26 c7
-12 -15 -59 -28 -59 -4 0 -8 16 -8 35 0 35 20 49 36 24z m-186 -47 c0 -13 -12
-22 -22 -16 -10 6 -1 24 13 24 5 0 9 -4 9 -8z"/>
<path d="M1335 1194 c-22 -14 -53 -39 -69 -55 l-28 -29 26 -10 c15 -5 39 -11
55 -12 28 -2 28 -3 13 -23 -16 -22 -17 -22 -32 -2 -20 24 -60 15 -60 -14 0
-10 4 -19 9 -19 5 0 9 -20 9 -45 0 -41 -2 -45 -24 -45 -18 0 -23 4 -17 13 13
22 11 35 -8 53 -18 16 -18 19 -3 42 12 19 14 30 5 48 -13 30 -47 38 -116 29
-55 -6 -67 -19 -44 -42 7 -7 13 -40 14 -75 3 -94 4 -99 18 -97 34 4 49 -7 97
-71 59 -80 141 -157 176 -166 82 -21 172 51 167 134 0 6 -1 21 -2 31 0 11 -13
33 -27 50 -29 35 -24 63 7 35 17 -16 20 -16 45 1 25 16 26 19 10 30 -14 11
-16 20 -9 47 5 18 7 41 5 50 -4 22 -36 32 -61 18 -18 -9 -19 -14 -9 -35 8 -19
8 -31 0 -50 -18 -40 -28 -29 -27 32 0 39 -4 58 -12 59 -7 1 -17 2 -23 3 -5 0
2 12 15 27 20 21 22 30 14 56 -11 38 -17 45 -49 53 -18 4 -37 -1 -65 -21z
m-183 -120 c10 -9 -3 -42 -18 -48 -10 -4 -14 3 -14 24 0 27 17 40 32 24z m243
-4 c-3 -5 -12 -7 -20 -3 -21 7 -19 13 6 13 11 0 18 -4 14 -10z m5 -87 c0 -40
-2 -43 -27 -43 -16 0 -37 7 -47 15 -17 13 -18 16 -3 39 9 13 24 23 34 22 10 0
18 5 19 12 3 25 5 27 14 12 5 -8 10 -34 10 -57z m-241 -2 c19 -12 5 -31 -24
-31 -21 0 -25 9 -16 38 2 5 27 1 40 -7z"/>
<path d="M1720 1125 c-10 -12 -10 -19 -2 -27 7 -7 12 -45 12 -94 0 -74 2 -83
20 -89 27 -9 43 3 36 28 -3 11 3 34 12 51 l17 31 3 -52 c3 -56 16 -69 57 -53
28 11 33 28 10 36 -11 5 -13 16 -8 50 10 72 -35 100 -77 47 l-21 -27 4 40 c3
21 0 47 -5 57 -11 21 -41 22 -58 2z"/>
<path d="M117 1122 c-20 -4 -23 -30 -4 -37 8 -4 13 -30 14 -76 1 -39 4 -77 7
-85 10 -27 146 -3 146 26 0 4 3 15 6 24 3 8 -3 22 -15 32 -18 16 -18 20 -5 38
44 63 -28 101 -149 78z m99 -58 c-3 -9 -6 -19 -6 -24 0 -4 -7 -10 -15 -14 -11
-4 -15 2 -15 24 0 24 4 30 21 30 15 0 19 -4 15 -16z m9 -94 c0 -8 -10 -16 -22
-18 -18 -3 -23 2 -23 18 0 16 5 21 23 18 12 -2 22 -10 22 -18z"/>
<path d="M310 1070 c-12 -8 -13 -13 -2 -30 6 -11 12 -39 12 -64 0 -54 19 -74
55 -58 27 12 36 48 10 38 -8 -3 -15 0 -15 7 1 19 27 48 47 51 13 2 18 11 18
32 0 38 -34 40 -52 4 -12 -23 -13 -24 -13 -4 0 30 -31 42 -60 24z"/>
<path d="M1596 1064 c-28 -27 -20 -62 19 -85 43 -25 44 -33 6 -24 -36 8 -52
-12 -25 -32 22 -17 83 -11 96 9 18 29 8 56 -27 72 -44 21 -44 28 -2 24 26 -2
33 1 35 18 2 15 -4 23 -20 28 -38 10 -66 7 -82 -10z"/>
<path d="M539 881 c-45 -36 -17 -121 39 -121 38 0 149 90 137 111 -6 9 -44 17
-107 23 -35 3 -53 0 -69 -13z"/>
<path d="M843 812 c-81 -61 -162 -142 -164 -164 0 -7 -3 -25 -5 -40 -10 -61
52 -129 123 -135 61 -5 108 22 130 75 21 50 23 322 2 322 -4 0 -43 -26 -86
-58z"/>
<path d="M1054 735 c-14 -95 14 -165 66 -165 30 0 70 39 70 68 -1 31 -17 53
-82 105 l-47 38 -7 -46z"/>
</g>
</svg>
